<?xml version="1.0" encoding="utf-8"?>
<svg xmlns="http://www.w3.org/2000/svg" viewBox="0 0 50 50" width="500" height="500">
  <path d="M25 0C23.152344 0 21.640625 1.289063 21.1875 3L9 3C7.347656 3 6 4.347656 6 6L6 45C6 46.652344 7.347656 48 9 48L41 48C42.652344 48 44 46.652344 44 45L44 6C44 4.347656 42.652344 3 41 3L33.0625 3C33.042969 3 33.019531 3 33 3L28.8125 3C28.359375 1.289063 26.847656 0 25 0 Z M 25 2C26.117188 2 27 2.882813 27 4C27 4.550781 27.449219 5 28 5L32 5L32 8L18 8L18 5L22 5C22.550781 5 23 4.550781 23 4C23 2.882813 23.882813 2 25 2 Z M 35.8125 17.03125C36.0625 16.980469 36.332031 17.003906 36.5625 17.15625C37.023438 17.460938 37.148438 18.101563 36.84375 18.5625L32.84375 24.5625C32.8125 24.609375 32.753906 24.648438 32.71875 24.6875C32.707031 24.699219 32.730469 24.707031 32.71875 24.71875C32.714844 24.722656 32.691406 24.714844 32.6875 24.71875C32.601563 24.800781 32.511719 24.859375 32.40625 24.90625C32.382813 24.917969 32.367188 24.929688 32.34375 24.9375C32.238281 24.976563 32.113281 25 32 25C31.886719 25 31.765625 24.976563 31.65625 24.9375C31.625 24.925781 31.59375 24.890625 31.5625 24.875C31.523438 24.855469 31.476563 24.871094 31.4375 24.84375C31.410156 24.824219 31.402344 24.773438 31.375 24.75C31.347656 24.730469 31.304688 24.742188 31.28125 24.71875L28.28125 21.71875C27.890625 21.328125 27.890625 20.671875 28.28125 20.28125C28.671875 19.890625 29.328125 19.890625 29.71875 20.28125L31.84375 22.4375L35.15625 17.4375C35.308594 17.207031 35.5625 17.082031 35.8125 17.03125 Z M 14 20L24 20C24.554688 20 25 20.449219 25 21C25 21.550781 24.554688 22 24 22L14 22C13.445313 22 13 21.550781 13 21C13 20.449219 13.445313 20 14 20 Z M 29 30C29.253906 30 29.523438 30.085938 29.71875 30.28125L32 32.59375L34.28125 30.28125C34.671875 29.890625 35.328125 29.890625 35.71875 30.28125C36.109375 30.671875 36.109375 31.328125 35.71875 31.71875L33.40625 34L35.71875 36.28125C36.109375 36.671875 36.109375 37.328125 35.71875 37.71875C35.523438 37.914063 35.257813 38 35 38C34.742188 38 34.476563 37.914063 34.28125 37.71875L32 35.40625L29.71875 37.71875C29.523438 37.914063 29.257813 38 29 38C28.742188 38 28.476563 37.914063 28.28125 37.71875C27.890625 37.328125 27.890625 36.671875 28.28125 36.28125L30.59375 34L28.28125 31.71875C27.890625 31.328125 27.890625 30.671875 28.28125 30.28125C28.476563 30.085938 28.746094 30 29 30 Z M 14 33L24 33C24.554688 33 25 33.449219 25 34C25 34.550781 24.554688 35 24 35L14 35C13.445313 35 13 34.550781 13 34C13 33.449219 13.445313 33 14 33Z" fill="#FFFFFF" />
</svg>