<?xml version="1.0" encoding="utf-8"?>
<svg xmlns="http://www.w3.org/2000/svg" viewBox="0 0 50 50" width="500" height="500">
  <path d="M25 0C23.152344 0 21.640625 1.289063 21.1875 3L9 3C7.355469 3 6 4.355469 6 6L6 45C6 46.644531 7.355469 48 9 48L41 48C42.644531 48 44 46.644531 44 45L44 6C44 4.355469 42.644531 3 41 3L32.0625 3C32.042969 3 32.019531 3 32 3L28.8125 3C28.359375 1.289063 26.847656 0 25 0 Z M 25 2C26.117188 2 27 2.882813 27 4C27 4.550781 27.449219 5 28 5L31 5L31 7L19 7L19 5L22 5C22.550781 5 23 4.550781 23 4C23 2.882813 23.882813 2 25 2 Z M 9 5L17 5L17 8C17 8.550781 17.449219 9 18 9L32 9C32.550781 9 33 8.550781 33 8L33 5L41 5C41.566406 5 42 5.433594 42 6L42 45C42 45.566406 41.566406 46 41 46L9 46C8.433594 46 8 45.566406 8 45L8 6C8 5.433594 8.433594 5 9 5 Z M 36 16.9375C35.945313 16.945313 35.894531 16.953125 35.84375 16.96875C35.824219 16.976563 35.800781 16.988281 35.78125 17C35.523438 17.058594 35.296875 17.214844 35.15625 17.4375L31.84375 22.40625L29.71875 20.28125C29.511719 20.058594 29.210938 19.945313 28.90625 19.96875C28.863281 19.976563 28.820313 19.988281 28.78125 20C28.40625 20.066406 28.105469 20.339844 28 20.703125C27.894531 21.070313 28.003906 21.460938 28.28125 21.71875L31.15625 24.59375C31.175781 24.617188 31.195313 24.636719 31.21875 24.65625L31.28125 24.71875C31.292969 24.730469 31.300781 24.738281 31.3125 24.75C31.324219 24.761719 31.332031 24.769531 31.34375 24.78125C31.355469 24.792969 31.363281 24.800781 31.375 24.8125C31.414063 24.835938 31.457031 24.855469 31.5 24.875C31.519531 24.886719 31.542969 24.898438 31.5625 24.90625C31.582031 24.917969 31.605469 24.929688 31.625 24.9375C31.636719 24.9375 31.644531 24.9375 31.65625 24.9375C31.675781 24.949219 31.699219 24.960938 31.71875 24.96875C31.730469 24.96875 31.738281 24.96875 31.75 24.96875C31.769531 24.980469 31.792969 24.992188 31.8125 25C31.824219 25 31.832031 25 31.84375 25C31.863281 25 31.886719 25 31.90625 25C31.917969 25 31.925781 25 31.9375 25C32 25.003906 32.0625 25.003906 32.125 25C32.136719 25 32.144531 25 32.15625 25C32.230469 24.988281 32.304688 24.964844 32.375 24.9375C32.394531 24.929688 32.417969 24.917969 32.4375 24.90625C32.46875 24.898438 32.5 24.886719 32.53125 24.875C32.554688 24.855469 32.574219 24.835938 32.59375 24.8125C32.613281 24.804688 32.636719 24.792969 32.65625 24.78125C32.691406 24.753906 32.722656 24.722656 32.75 24.6875C32.773438 24.65625 32.792969 24.625 32.8125 24.59375C32.824219 24.582031 32.832031 24.574219 32.84375 24.5625L32.875 24.53125C32.886719 24.5 32.898438 24.46875 32.90625 24.4375L36.84375 18.5625C37.09375 18.253906 37.136719 17.828125 36.953125 17.476563C36.769531 17.121094 36.394531 16.910156 36 16.9375 Z M 13.71875 20C13.167969 20.078125 12.78125 20.589844 12.859375 21.140625C12.9375 21.691406 13.449219 22.078125 14 22L24 22C24.359375 22.003906 24.695313 21.816406 24.878906 21.503906C25.058594 21.191406 25.058594 20.808594 24.878906 20.496094C24.695313 20.183594 24.359375 19.996094 24 20L14 20C13.96875 20 13.9375 20 13.90625 20C13.875 20 13.84375 20 13.8125 20C13.78125 20 13.75 20 13.71875 20 Z M 28.90625 29.96875C28.863281 29.976563 28.820313 29.988281 28.78125 30C28.40625 30.066406 28.105469 30.339844 28 30.703125C27.894531 31.070313 28.003906 31.460938 28.28125 31.71875L30.5625 34L28.28125 36.28125C27.882813 36.679688 27.882813 37.320313 28.28125 37.71875C28.679688 38.117188 29.320313 38.117188 29.71875 37.71875L32 35.4375L34.28125 37.71875C34.679688 38.117188 35.320313 38.117188 35.71875 37.71875C36.117188 37.320313 36.117188 36.679688 35.71875 36.28125L33.4375 34L35.71875 31.71875C36.042969 31.417969 36.128906 30.941406 35.933594 30.546875C35.742188 30.148438 35.308594 29.929688 34.875 30C34.652344 30.023438 34.441406 30.125 34.28125 30.28125L32 32.5625L29.71875 30.28125C29.511719 30.058594 29.210938 29.945313 28.90625 29.96875 Z M 13.71875 33C13.167969 33.078125 12.78125 33.589844 12.859375 34.140625C12.9375 34.691406 13.449219 35.078125 14 35L24 35C24.359375 35.003906 24.695313 34.816406 24.878906 34.503906C25.058594 34.191406 25.058594 33.808594 24.878906 33.496094C24.695313 33.183594 24.359375 32.996094 24 33L14 33C13.96875 33 13.9375 33 13.90625 33C13.875 33 13.84375 33 13.8125 33C13.78125 33 13.75 33 13.71875 33Z" fill="#FFFFFF" />
</svg>