<?xml version="1.0" encoding="utf-8"?>
<svg xmlns="http://www.w3.org/2000/svg" viewBox="0 0 50 50" width="500" height="500">
  <path d="M25 0C23.14 0 21.570953 1.277 21.126953 3L19 3L19 7L31 7L31 3L28.873047 3C28.429047 1.277 26.86 0 25 0 z M 9 3C7.346 3 6 4.346 6 6L6 45C6 46.654 7.346 48 9 48L41 48C42.654 48 44 46.654 44 45L44 6C44 4.346 42.654 3 41 3L33 3L33 8C33 8.552 32.553 9 32 9L18 9C17.447 9 17 8.552 17 8L17 3L9 3 z M 15.136719 12.332031L15.318359 12.332031L15.318359 20.875L13.626953 20.875L13.626953 14.347656L11.605469 14.974609L11.605469 13.597656L15.136719 12.332031 z M 20 16L38 16L38 18L20 18L20 16 z M 14.001953 23.226562C14.880953 23.226562 15.562828 23.437375 16.048828 23.859375C16.534828 24.281375 16.777344 24.877484 16.777344 25.646484C16.777344 26.068484 16.668219 26.498547 16.449219 26.935547C16.230219 27.372547 15.855219 27.882844 15.324219 28.464844L13.386719 30.509766L17.054688 30.509766L17.054688 31.875L17.052734 31.875L11.205078 31.875L11.205078 30.714844L13.964844 27.773438C14.343844 27.359437 14.624641 26.998453 14.806641 26.689453C14.988641 26.380453 15.078125 26.087547 15.078125 25.810547C15.078125 25.431547 14.982016 25.134969 14.791016 24.917969C14.600016 24.700969 14.325703 24.591797 13.970703 24.591797C13.587703 24.591797 13.286406 24.724281 13.066406 24.988281C12.846406 25.252281 12.734375 25.597344 12.734375 26.027344L11.035156 26.027344C11.035156 25.507344 11.160203 25.033516 11.408203 24.603516C11.656203 24.173516 12.007938 23.83775 12.460938 23.59375C12.913937 23.34975 13.427953 23.226562 14.001953 23.226562 z M 20 27L38 27L38 29L20 29L20 27 z M 13.900391 34.228516C14.802391 34.228516 15.509484 34.444 16.021484 34.875C16.533484 35.306 16.789062 35.900203 16.789062 36.658203C16.789062 37.049203 16.671594 37.408328 16.433594 37.736328C16.195594 38.064328 15.881141 38.316187 15.494141 38.492188C15.974141 38.664187 16.334312 38.922625 16.570312 39.265625C16.806313 39.608625 16.923828 40.015375 16.923828 40.484375C16.923828 41.241375 16.647703 41.849641 16.095703 42.306641C15.542703 42.763641 14.810391 42.992187 13.900391 42.992188C13.048391 42.992188 12.3535 42.767359 11.8125 42.318359C11.2715 41.869359 11 41.275109 11 40.537109L12.693359 40.537109C12.693359 40.857109 12.812734 41.119266 13.052734 41.322266C13.292734 41.525266 13.589406 41.626953 13.941406 41.626953C14.343406 41.626953 14.658719 41.521594 14.886719 41.308594C15.114719 41.095594 15.230469 40.812937 15.230469 40.460938C15.230469 39.608938 14.761219 39.183594 13.824219 39.183594L12.927734 39.183594L12.927734 37.859375L13.830078 37.859375C14.260078 37.859375 14.578156 37.752109 14.785156 37.537109C14.992156 37.322109 15.095703 37.038594 15.095703 36.683594C15.095703 36.339594 14.992109 36.072859 14.787109 35.880859C14.582109 35.688859 14.301406 35.59375 13.941406 35.59375C13.617406 35.59375 13.344953 35.681375 13.126953 35.859375C12.908953 36.037375 12.798828 36.269687 12.798828 36.554688L11.105469 36.554688C11.105469 36.109687 11.226797 35.708469 11.466797 35.355469C11.706797 35.002469 12.042609 34.726344 12.474609 34.527344C12.906609 34.328344 13.380391 34.228516 13.900391 34.228516 z M 20 38L38 38L38 40L20 40L20 38 z" fill="#FFFFFF" />
</svg>