<?xml version="1.0" encoding="utf-8"?>
<svg xmlns="http://www.w3.org/2000/svg" viewBox="0 0 50 50" width="500" height="500">
  <path d="M25 0C23.14 0 21.572953 1.277 21.126953 3L18 3L9 3C7.346 3 6 4.346 6 6L6 45C6 46.654 7.346 48 9 48L41 48C42.654 48 44 46.654 44 45L44 6C44 4.346 42.654 3 41 3L32 3L28.873047 3C28.429047 1.277 26.86 0 25 0 z M 25 2C26.103 2 27 2.897 27 4C27 4.552 27.447 5 28 5L31 5L31 7L19 7L19 5L22 5C22.552 5 23 4.552 23 4C23 2.897 23.897 2 25 2 z M 9 5L17 5L17 8C17 8.552 17.448 9 18 9L32 9C32.553 9 33 8.552 33 8L33 5L41 5C41.552 5 42 5.449 42 6L42 45C42 45.552 41.552 46 41 46L9 46C8.449 46 8 45.552 8 45L8 6C8 5.449 8.449 5 9 5 z M 15.136719 12.332031L11.603516 13.597656L11.603516 14.974609L13.625 14.347656L13.625 20.875L15.318359 20.875L15.318359 12.332031L15.136719 12.332031 z M 20 16L20 18L38 18L38 16L20 16 z M 14.001953 23.226562C13.427953 23.226562 12.913937 23.34975 12.460938 23.59375C12.007938 23.83775 11.656203 24.173516 11.408203 24.603516C11.160203 25.033516 11.035156 25.507344 11.035156 26.027344L12.734375 26.027344C12.734375 25.597344 12.846406 25.252281 13.066406 24.988281C13.286406 24.724281 13.587703 24.591797 13.970703 24.591797C14.325703 24.591797 14.600016 24.700969 14.791016 24.917969C14.982016 25.134969 15.078125 25.431547 15.078125 25.810547C15.078125 26.087547 14.988641 26.380453 14.806641 26.689453C14.624641 26.998453 14.343844 27.359437 13.964844 27.773438L11.205078 30.714844L11.205078 31.875L17.052734 31.875L17.054688 31.875L17.054688 30.509766L13.386719 30.509766L15.324219 28.464844C15.855219 27.882844 16.230219 27.372547 16.449219 26.935547C16.668219 26.498547 16.777344 26.068484 16.777344 25.646484C16.777344 24.877484 16.534828 24.281375 16.048828 23.859375C15.562828 23.437375 14.880953 23.226562 14.001953 23.226562 z M 20 27L20 29L38 29L38 27L20 27 z M 13.900391 34.226562C13.380391 34.226562 12.906609 34.326391 12.474609 34.525391C12.042609 34.724391 11.706797 35.002469 11.466797 35.355469C11.226797 35.708469 11.105469 36.107734 11.105469 36.552734L12.798828 36.552734C12.798828 36.267734 12.908953 36.037375 13.126953 35.859375C13.344953 35.681375 13.617406 35.591797 13.941406 35.591797C14.301406 35.591797 14.582109 35.686906 14.787109 35.878906C14.992109 36.070906 15.095703 36.337641 15.095703 36.681641C15.095703 37.036641 14.992156 37.322109 14.785156 37.537109C14.578156 37.752109 14.260078 37.859375 13.830078 37.859375L12.927734 37.859375L12.927734 39.183594L13.824219 39.183594C14.761219 39.183594 15.230469 39.608938 15.230469 40.460938C15.230469 40.812937 15.114719 41.095594 14.886719 41.308594C14.658719 41.521594 14.343406 41.626953 13.941406 41.626953C13.589406 41.626953 13.292734 41.525266 13.052734 41.322266C12.812734 41.119266 12.693359 40.857109 12.693359 40.537109L11 40.537109C11 41.275109 11.2715 41.869359 11.8125 42.318359C12.3535 42.767359 13.048391 42.992188 13.900391 42.992188C14.810391 42.992188 15.542703 42.763641 16.095703 42.306641C16.648703 41.849641 16.923828 41.242375 16.923828 40.484375C16.923828 40.015375 16.806313 39.608625 16.570312 39.265625C16.334313 38.922625 15.974141 38.664187 15.494141 38.492188C15.881141 38.316187 16.195594 38.064328 16.433594 37.736328C16.671594 37.408328 16.789062 37.049203 16.789062 36.658203C16.789062 35.900203 16.533484 35.304047 16.021484 34.873047C15.509484 34.442047 14.802391 34.226562 13.900391 34.226562 z M 20 38L20 40L38 40L38 38L20 38 z" fill="#FFFFFF" />
</svg>